# xmcd CD database file
#
# Track frame offsets:
#	150
#	18032
#	24962
#	42270
#	65175
#	89052
#	109325
#	121750
#	143637
#	163470
#	182730
#	203757
#	212942
#	236460
#
# Disc length: 3430 seconds
#
# Revision: 0
# Processed by: cddbd v1.5.1PL0 Copyright (c) Steve Scherf et al.
# Submitted via: CDex 1.51
#
DISCID=c60d640e
DTITLE=TOKIMEKI ALL STARS - ときめきメモリアル The 10th Anniversary LOVE ME PLEASE
DYEAR=2004
DGENRE=Game
TTITLE0=Forever/菅原祥子
TTITLE1=おしゃべりピアス　10th memory #1
TTITLE2=愛なんてあとでいい/中友子＆五十嵐麗
TTITLE3=誰よりも…/関根明子・黒崎彩子・栗原みきこ
TTITLE4=裸足の人魚姫/笹木綾子
TTITLE5=君から吹く風/うえだゆうじ
TTITLE6=おしゃべりピアス 10th memory #2
TTITLE7=KODO/金月真美
TTITLE8=Good bye-yesterday/鉄炮塚葉子
TTITLE9=スクールデイズは大騒ぎ〜学園べいべえ〜/菅原祥子・鉄炮塚葉子・よしきくりん
TTITLE10=Lunatic emotion/中友子
TTITLE11=おしゃべりピアス 10th memory #3
TTITLE12=I wish/菊池志穂
TTITLE13=10th SMILE(=じゅうねんスマイル)/ときめきスターズ
EXTD=YEAR: 2004
EXTT0=
EXTT1=
EXTT2=
EXTT3=
EXTT4=
EXTT5=
EXTT6=
EXTT7=
EXTT8=
EXTT9=
EXTT10=
EXTT11=
EXTT12=
EXTT13=
PLAYORDER=
